<svg width="20" height="20" viewBox="0 0 20 20" fill="none" xmlns="http://www.w3.org/2000/svg">
<path d="M4.44135 14.3241C4.13283 14.6326 4.13283 15.1328 4.44135 15.4413C4.74986 15.7499 5.25006 15.7499 5.55858 15.4413L9.94996 11.05L14.3413 15.4413C14.6499 15.7499 15.1501 15.7499 15.4586 15.4413C15.7671 15.1328 15.7671 14.6326 15.4586 14.3241L11.0672 9.93273L15.4413 5.55858C15.7499 5.25006 15.7499 4.74986 15.4413 4.44135C15.1328 4.13283 14.6326 4.13283 14.3241 4.44135L9.94996 8.8155L5.5758 4.44135C5.26729 4.13283 4.76709 4.13283 4.45858 4.44135C4.15006 4.74986 4.15006 5.25006 4.45858 5.55858L8.83273 9.93273L4.44135 14.3241Z" fill="#F44622"/>
</svg>
